<svg xmlns="http://www.w3.org/2000/svg" viewBox="0 0 220 140" width="220" height="140">
  <rect width="220" height="140" fill="#1E1E1E"/>
  <g transform="translate(87, 35) scale(1.23)">
    <path d="M19 28.5C19 24.9101 21.9101 22 25.5 22C29.0899 22 32 24.9101 32 28.5C32 32.0899 29.0899 35 25.5 35C21.9101 35 19 32.0899 19 28.5Z" fill="#1ABCFE"/>
    <path d="M6 42C6 38.4101 8.91015 35.5 12.5 35.5H19V42C19 45.5899 16.0899 48.5 12.5 48.5C8.91015 48.5 6 45.5899 6 42Z" fill="#0ACF83"/>
    <path d="M19 8.5V22H25.5C29.0899 22 32 19.0899 32 15.5C32 11.9101 29.0899 9 25.5 9H19V8.5Z" fill="#FF7262"/>
    <path d="M6 15.5C6 19.0899 8.91015 22 12.5 22H19V9H12.5C8.91015 9 6 11.9101 6 15.5Z" fill="#F24E1E"/>
    <path d="M6 28.5C6 32.0899 8.91015 35 12.5 35H19V22H12.5C8.91015 22 6 24.9101 6 28.5Z" fill="#A259FF"/>
  </g>
</svg>
